<?xml version="1.0" encoding="utf-8"?>
<!-- Generator: Adobe Illustrator 24.3.0, SVG Export Plug-In . SVG Version: 6.00 Build 0)  -->
<svg version="1.1" xmlns="http://www.w3.org/2000/svg" xmlns:xlink="http://www.w3.org/1999/xlink" x="0px" y="0px"
	 viewBox="0 0 202.55 132.43" style="enable-background:new 0 0 202.55 132.43;" xml:space="preserve">
<style type="text/css">
	.st0{display:none;}
	.st1{fill:#322A82;}
	.st2{fill:#EA4F28;}
</style>
<g id="Слой_1" class="st0">
</g>
<g id="Слой_2">
	<g>
		<g>
			<rect x="3.97" y="29.82" class="st1" width="27.25" height="81.24"/>
			<polyline class="st1" points="74.06,80.6 54.74,112.23 26.54,66.69 			"/>
			<polyline class="st1" points="21.36,66.4 14.2,51.11 29.8,39.19 			"/>
			<polyline class="st1" points="67.04,86.33 22.98,63.78 31.22,29.82 			"/>
			<polygon class="st1" points="74.06,80.6 59.55,76.48 54.2,67.6 59.96,58.26 			"/>
		</g>
		<polyline class="st2" points="125.57,0.33 74.06,80.6 59.96,58.26 97.53,-0.06 		"/>
		<polyline class="st2" points="142.49,26.75 90.97,107.02 76.87,84.68 114.44,26.36 		"/>
		<polyline class="st2" points="158.38,52.22 106.87,132.48 92.77,110.14 130.34,51.82 		"/>
		<polyline class="st1" points="171.67,29.82 198.92,29.82 198.92,111.05 173.04,111.05 171.67,76 149.19,111.05 134.48,89.46 		"/>
	</g>
</g>
</svg>
